# xmcd
#
# Track frame offsets:
#	150
#	11084
#	21861
#	36557
#	52491
#	65079
#	79166
#	89454
#	102703
#	121056
#	136641
#	150327
#
# Disc length: 2163
#
# Revision: 3
# Processed by: cddbd v1.5.1PL0 Copyright (c) Steve Scherf et al.
# Submitted via: Audio-CD-Archiv 2.10.438
# Normalized: r1:DSETVAR1,TDELIM( - );r2:TSWAP
#
DISCID=a308710c
DTITLE=Various Artist - I'm A Truck CD2
DYEAR=1900
DGENRE=country
TTITLE0=Steve Brown - Rhythm Of The Road
TTITLE1=Steve Brown - Trucker's Lady
TTITLE2=Earl Ricks - Highway 40 Blues
TTITLE3=Johnny Russell - Luckenbach Texas
TTITLE4=Lacosta Trucker - He Took Me For A Ride
TTITLE5=Bob Luman - Lonely Woman Make Good Lovers
TTITLE6=Dennis Olsen - Truck Drivin' Outlaw
TTITLE7=Faron Young - It's Four In The Morning
TTITLE8=David Houston - Nashville
TTITLE9=Steve Brown - C.B. Savage
TTITLE10=The Nashville Voices - Big City
TTITLE11=Earl Ricks - truck Driver's Prayer
EXTD=
EXTT0=
EXTT1=
EXTT2=
EXTT3=
EXTT4=
EXTT5=
EXTT6=
EXTT7=
EXTT8=
EXTT9=
EXTT10=
EXTT11=
PLAYORDER=
